<?xml version="1.0" encoding="UTF-8"?>
<svg xmlns="http://www.w3.org/2000/svg" xmlns:xlink="http://www.w3.org/1999/xlink" width="16px" height="20px" viewBox="0 0 16 20" version="1.1">
<g id="surface1">
<path style=" stroke:none;fill-rule:nonzero;fill:rgb(100%,100%,100%);fill-opacity:1;" d="M 8 0.476562 C 3.597656 0.476562 0 3.90625 0 8.097656 C 0 13.238281 7 19.046875 7.300781 19.332031 C 7.5 19.425781 7.800781 19.523438 8 19.523438 C 8.199219 19.523438 8.5 19.425781 8.699219 19.332031 C 9 19.046875 16 13.238281 16 8.097656 C 16 3.90625 12.402344 0.476562 8 0.476562 Z M 8 17.332031 C 5.902344 15.429688 2 11.335938 2 8.097656 C 2 4.949219 4.699219 2.378906 8 2.378906 C 11.300781 2.378906 14 4.949219 14 8.097656 C 14 11.238281 10.097656 15.429688 8 17.332031 Z M 8 4.285156 C 5.800781 4.285156 4 6 4 8.097656 C 4 10.191406 5.800781 11.902344 8 11.902344 C 10.199219 11.902344 12 10.191406 12 8.097656 C 12 6 10.199219 4.285156 8 4.285156 Z M 8 10 C 6.902344 10 6 9.144531 6 8.097656 C 6 7.046875 6.902344 6.191406 8 6.191406 C 9.097656 6.191406 10 7.046875 10 8.097656 C 10 9.144531 9.097656 10 8 10 Z M 8 10 "/>
</g>
</svg>
