<svg width="91" height="91" viewBox="0 0 91 91" fill="none" xmlns="http://www.w3.org/2000/svg">
<path d="M36.4167 9.16658C21.3669 9.16658 9.16671 21.3668 9.16671 36.4166C9.16671 51.4663 21.3669 63.6666 36.4167 63.6666C51.4665 63.6666 63.6667 51.4663 63.6667 36.4166C63.6667 21.3668 51.4665 9.16658 36.4167 9.16658ZM0.083374 36.4166C0.083374 16.3502 16.3504 0.083252 36.4167 0.083252C56.4831 0.083252 72.75 16.3502 72.75 36.4166C72.75 44.8128 69.902 52.5439 65.1194 58.6964L89.5865 83.1635C91.3601 84.9371 91.3601 87.8127 89.5865 89.5864C87.8128 91.36 84.9372 91.36 83.1636 89.5864L58.6965 65.1193C52.544 69.9019 44.8129 72.7499 36.4167 72.7499C16.3504 72.7499 0.083374 56.4829 0.083374 36.4166ZM36.4167 22.7916C38.925 22.7916 40.9584 24.825 40.9584 27.3333V31.8749H45.5C48.0083 31.8749 50.0417 33.9083 50.0417 36.4166C50.0417 38.9249 48.0083 40.9583 45.5 40.9583H40.9584V45.4999C40.9584 48.0082 38.925 50.0416 36.4167 50.0416C33.9084 50.0416 31.875 48.0082 31.875 45.4999V40.9583H27.3334C24.8251 40.9583 22.7917 38.9249 22.7917 36.4166C22.7917 33.9083 24.8251 31.8749 27.3334 31.8749H31.875V27.3333C31.875 24.825 33.9084 22.7916 36.4167 22.7916Z" fill="white"/>
</svg>
