<svg width="54" height="54" viewBox="0 0 54 54" fill="none" xmlns="http://www.w3.org/2000/svg">
<circle cx="27" cy="27" r="27" fill="#2AA1DD"/>
<path d="M39.9624 15.8824C39.8723 15.8824 39.7694 15.8952 39.6793 15.9338L14.8119 25.3894C14.1044 25.6595 14.1301 26.6501 14.8377 26.8945L20.601 28.8371L24.0745 35.7969L24.0874 35.8097C24.1517 35.9384 24.2803 36.0156 24.4218 36.0156C24.499 36.0156 24.5891 35.9899 24.6663 35.9255L27.921 33.1596L24.2803 30.4066L24.5634 34.0344L21.9518 28.6184L35.8457 20.2692L24.2803 30.3937L33.2856 37.2249C33.5815 37.4564 33.9288 37.5593 34.2762 37.5593C34.9837 37.5593 35.6784 37.0962 35.8714 36.3115L40.7343 16.8472C40.8629 16.3583 40.4512 15.8824 39.9624 15.8824Z" fill="white"/>
</svg>
