<svg width="54" height="54" viewBox="0 0 54 54" fill="none" xmlns="http://www.w3.org/2000/svg">
<circle cx="27" cy="27" r="27" fill="#3ADC49"/>
<path d="M27.8047 41.2941C25.4414 41.2941 23.1213 40.6682 21.0709 39.4812L15.8047 41.2941L16.8839 35.7258C15.1896 33.4056 14.2939 30.6754 14.2939 27.7941C14.2939 20.3481 20.3479 14.2941 27.7939 14.2941C35.2399 14.2941 41.2939 20.3481 41.2939 27.7941C41.3155 35.2294 35.2615 41.2941 27.8047 41.2941ZM21.3191 37.2689L21.7292 37.5279C23.5637 38.6826 25.668 39.2869 27.8155 39.2869C34.15 39.2869 39.3083 34.1286 39.3083 27.7941C39.3083 21.4596 34.15 16.3013 27.8155 16.3013C21.4702 16.2905 16.3119 21.4488 16.3119 27.7833C16.3119 30.3625 17.1537 32.8013 18.7508 34.8517L19.0313 35.2078L18.4378 38.251L21.3191 37.2689Z" fill="white"/>
<path d="M20.9953 22.6034C20.9953 22.6034 21.7831 21.2221 22.4305 21.1358C23.078 21.0603 23.9089 21.0603 24.1356 21.4811C24.3622 21.902 25.3658 24.3624 25.3658 24.3624C25.3658 24.3624 25.5384 24.7833 25.2687 25.1934C24.9989 25.5926 24.4053 26.1862 24.4053 26.1862C24.4053 26.1862 24.0708 26.607 24.4053 27.0603C24.7399 27.5135 25.2471 28.3336 26.3046 29.3912C27.3622 30.4488 29.3909 31.2041 29.3909 31.2041C29.3909 31.2041 29.6823 31.2473 29.8658 31.0639C30.0492 30.8804 31.0528 29.6286 31.0528 29.6286C31.0528 29.6286 31.3766 29.2185 31.9053 29.4559C32.4341 29.7041 34.7542 30.8588 34.7542 30.8588C34.7542 30.8588 35.024 30.9559 35.024 31.366C35.024 31.7761 34.8622 32.7797 34.5168 33.1142C34.1823 33.4488 33.1895 34.4955 31.7003 34.4955C30.2111 34.4955 26.6715 33.2869 24.783 31.3984C22.8946 29.5099 21.2219 27.5998 20.8226 25.8624C20.4557 24.1034 20.5097 23.3157 20.9953 22.6034Z" fill="white"/>
</svg>
