<svg width="18" height="18" viewBox="0 0 18 18" fill="none" xmlns="http://www.w3.org/2000/svg">
<path d="M8.59247 17.5C7.10446 17.5 5.64363 17.1059 4.35267 16.3585L1.03693 17.5L1.71638 13.994C0.649641 12.5332 0.0856934 10.8141 0.0856934 9C0.0856934 4.31175 3.89744 0.5 8.58567 0.5C13.2739 0.5 17.0857 4.31175 17.0857 9C17.0992 13.6815 13.2875 17.5 8.59247 17.5ZM4.50895 14.9656L4.76714 15.1287C5.92221 15.8557 7.24715 16.2362 8.59926 16.2362C12.5877 16.2362 15.8355 12.9884 15.8355 9C15.8355 5.01159 12.5877 1.76379 8.59926 1.76379C4.60407 1.75699 1.35627 5.0048 1.35627 8.99321C1.35627 10.6171 1.88625 12.1527 2.89184 13.4436L3.0685 13.6679L2.6948 15.5839L4.50895 14.9656Z" fill="#262D2A"/>
<path d="M4.30505 5.73179C4.30505 5.73179 4.80106 4.86209 5.20873 4.80773C5.6164 4.76017 6.13958 4.76017 6.28227 5.02516C6.42495 5.29014 7.05685 6.8393 7.05685 6.8393C7.05685 6.8393 7.16556 7.10429 6.99569 7.36249C6.82583 7.61389 6.45213 7.98759 6.45213 7.98759C6.45213 7.98759 6.2415 8.25257 6.45213 8.53795C6.66276 8.82332 6.98211 9.3397 7.64797 10.0056C8.31384 10.6714 9.59121 11.1471 9.59121 11.1471C9.59121 11.1471 9.77467 11.1742 9.89017 11.0587C10.0057 10.9432 10.6376 10.1551 10.6376 10.1551C10.6376 10.1551 10.8414 9.89686 11.1743 10.0463C11.5073 10.2026 12.9681 10.9296 12.9681 10.9296C12.9681 10.9296 13.138 10.9908 13.138 11.249C13.138 11.5072 13.036 12.1391 12.8186 12.3497C12.608 12.5603 11.9829 13.2194 11.0452 13.2194C10.1076 13.2194 7.87899 12.4584 6.68994 11.2694C5.50089 10.0803 4.44774 8.87768 4.19634 7.78375C3.96533 6.67624 3.9993 6.18023 4.30505 5.73179Z" fill="#262D2A"/>
</svg>
